<svg id="svg" version="1.1" xmlns="http://www.w3.org/2000/svg" xmlns:xlink="http://www.w3.org/1999/xlink" width="400" height="88.30188679245283" viewBox="0, 0, 400,88.30188679245283"><g id="svgg"><path id="path0" d="M27.875 1.277 C 27.760 1.323,27.667 1.464,27.667 1.590 C 27.667 1.756,27.360 1.832,26.542 1.867 C 25.519 1.912,25.412 1.951,25.363 2.292 C 25.314 2.639,25.226 2.667,24.155 2.667 C 23.222 2.667,22.936 2.731,22.667 3.000 C 22.432 3.235,22.111 3.333,21.583 3.333 C 20.894 3.333,20.833 3.367,20.833 3.750 C 20.833 4.133,20.772 4.167,20.083 4.167 C 19.444 4.167,19.333 4.216,19.333 4.500 C 19.333 4.734,19.221 4.834,18.958 4.836 C 18.289 4.840,17.866 5.024,17.781 5.349 C 17.718 5.589,17.548 5.667,17.083 5.667 C 16.615 5.667,16.449 5.744,16.384 5.991 C 16.337 6.169,16.138 6.338,15.941 6.366 C 15.717 6.398,15.563 6.557,15.530 6.792 C 15.492 7.063,15.365 7.167,15.072 7.167 C 14.772 7.167,14.667 7.257,14.667 7.516 C 14.667 7.724,14.533 7.900,14.333 7.952 C 14.149 8.000,14.000 8.179,14.000 8.353 C 14.000 8.576,13.880 8.667,13.583 8.667 C 13.250 8.667,13.167 8.750,13.167 9.083 C 13.167 9.460,13.101 9.500,12.484 9.500 C 11.942 9.500,11.784 9.568,11.715 9.833 C 11.667 10.018,11.488 10.167,11.314 10.167 C 11.093 10.167,11.000 10.286,11.000 10.572 C 11.000 10.865,10.896 10.992,10.625 11.030 C 10.313 11.074,10.241 11.203,10.199 11.792 C 10.157 12.364,10.085 12.500,9.824 12.500 C 9.611 12.500,9.500 12.614,9.500 12.833 C 9.500 13.078,9.389 13.167,9.083 13.167 C 8.750 13.167,8.667 13.250,8.667 13.583 C 8.667 13.889,8.578 14.000,8.333 14.000 C 8.115 14.000,8.000 14.111,8.000 14.322 C 8.000 14.528,7.866 14.663,7.627 14.697 C 7.412 14.727,7.227 14.891,7.190 15.082 C 7.155 15.264,6.986 15.512,6.813 15.633 C 6.610 15.775,6.500 16.053,6.500 16.426 C 6.500 16.927,6.447 17.000,6.083 17.000 C 5.701 17.000,5.667 17.061,5.667 17.750 C 5.667 18.373,5.614 18.500,5.353 18.500 C 5.033 18.500,4.840 18.920,4.836 19.625 C 4.834 19.888,4.734 20.000,4.500 20.000 C 4.216 20.000,4.167 20.111,4.167 20.750 C 4.167 21.375,4.114 21.500,3.851 21.500 C 3.448 21.500,3.333 21.813,3.333 22.911 C 3.333 23.654,3.280 23.808,3.000 23.882 C 2.699 23.960,2.667 24.109,2.667 25.401 C 2.667 26.818,2.662 26.833,2.250 26.833 L 1.833 26.833 1.833 29.405 C 1.833 31.831,1.814 31.984,1.500 32.083 C 0.984 32.247,0.984 37.080,1.500 37.215 C 1.798 37.293,1.833 37.442,1.833 38.630 C 1.833 40.419,1.961 41.000,2.354 41.000 C 2.613 41.000,2.667 41.128,2.667 41.750 C 2.667 42.389,2.716 42.500,3.000 42.500 C 3.292 42.500,3.333 42.611,3.333 43.403 C 3.333 44.521,3.447 44.833,3.851 44.833 C 4.114 44.833,4.167 44.959,4.167 45.583 C 4.167 46.222,4.216 46.333,4.500 46.333 C 4.767 46.333,4.833 46.444,4.833 46.896 C 4.833 47.874,5.018 48.466,5.351 48.553 C 5.594 48.616,5.667 48.788,5.667 49.300 C 5.667 49.869,5.726 49.979,6.083 50.068 C 6.438 50.157,6.500 50.269,6.500 50.817 C 6.500 51.321,6.573 51.480,6.833 51.548 C 7.089 51.615,7.167 51.776,7.167 52.239 C 7.167 52.728,7.245 52.871,7.583 53.000 C 7.922 53.129,8.000 53.272,8.000 53.761 C 8.000 54.224,8.077 54.385,8.333 54.452 C 8.549 54.508,8.667 54.679,8.667 54.936 C 8.667 55.249,8.755 55.333,9.083 55.333 C 9.466 55.333,9.500 55.394,9.500 56.083 C 9.500 56.715,9.551 56.833,9.824 56.833 C 10.085 56.833,10.157 56.969,10.199 57.542 C 10.241 58.131,10.313 58.259,10.625 58.303 C 10.896 58.342,11.000 58.468,11.000 58.762 C 11.000 59.052,11.092 59.167,11.324 59.167 C 11.585 59.167,11.657 59.302,11.699 59.875 C 11.741 60.464,11.813 60.592,12.125 60.637 C 12.366 60.671,12.500 60.805,12.500 61.012 C 12.500 61.222,12.615 61.333,12.833 61.333 C 13.117 61.333,13.167 61.444,13.167 62.080 C 13.167 62.738,13.216 62.839,13.583 62.932 C 13.844 62.997,14.000 63.154,14.000 63.351 C 14.000 63.552,14.117 63.667,14.324 63.667 C 14.585 63.667,14.657 63.802,14.699 64.375 C 14.741 64.964,14.813 65.092,15.125 65.137 C 15.373 65.172,15.500 65.304,15.500 65.527 C 15.500 65.721,15.638 65.901,15.824 65.949 C 16.057 66.010,16.163 66.205,16.199 66.642 C 16.236 67.084,16.352 67.295,16.625 67.415 C 16.831 67.505,17.000 67.711,17.000 67.873 C 17.000 68.050,17.125 68.167,17.314 68.167 C 17.559 68.167,17.654 68.333,17.741 68.917 C 17.830 69.509,17.922 69.667,18.177 69.667 C 18.410 69.667,18.500 69.782,18.500 70.083 C 18.500 70.384,18.590 70.500,18.822 70.500 C 18.999 70.500,19.192 70.650,19.250 70.833 C 19.308 71.017,19.501 71.167,19.678 71.167 C 19.949 71.167,20.000 71.286,20.000 71.917 C 20.000 72.606,20.034 72.667,20.417 72.667 C 20.750 72.667,20.833 72.750,20.833 73.083 C 20.833 73.389,20.922 73.500,21.167 73.500 C 21.389 73.500,21.500 73.611,21.500 73.833 C 21.500 74.078,21.611 74.167,21.917 74.167 C 22.299 74.167,22.333 74.228,22.333 74.917 C 22.333 75.556,22.383 75.667,22.667 75.667 C 22.911 75.667,23.000 75.778,23.000 76.083 C 23.000 76.417,23.083 76.500,23.417 76.500 C 23.722 76.500,23.833 76.589,23.833 76.833 C 23.833 77.056,23.944 77.167,24.167 77.167 C 24.411 77.167,24.500 77.278,24.500 77.583 C 24.500 77.917,24.583 78.000,24.917 78.000 C 25.299 78.000,25.333 78.061,25.333 78.750 C 25.333 79.380,25.385 79.500,25.655 79.500 C 25.862 79.500,25.996 79.634,26.030 79.875 C 26.064 80.116,26.217 80.269,26.458 80.303 C 26.699 80.337,26.833 80.471,26.833 80.678 C 26.833 80.885,26.948 81.000,27.155 81.000 C 27.362 81.000,27.496 81.134,27.530 81.375 C 27.564 81.616,27.717 81.769,27.958 81.803 C 28.199 81.837,28.333 81.971,28.333 82.178 C 28.333 82.389,28.448 82.500,28.667 82.500 C 28.901 82.500,29.001 82.612,29.002 82.875 C 29.007 83.580,29.200 84.000,29.519 84.000 C 29.727 84.000,29.833 84.118,29.833 84.349 C 29.833 84.552,29.966 84.733,30.151 84.781 C 30.326 84.827,30.507 85.007,30.552 85.182 C 30.601 85.367,30.781 85.500,30.984 85.500 C 31.245 85.500,31.333 85.605,31.333 85.917 C 31.333 86.214,31.424 86.333,31.647 86.333 C 31.821 86.333,32.000 86.482,32.048 86.667 C 32.100 86.866,32.276 87.000,32.484 87.000 C 32.747 87.000,32.833 87.105,32.833 87.422 L 32.833 87.844 34.708 87.797 C 36.509 87.752,36.585 87.735,36.637 87.375 C 36.671 87.134,36.805 87.000,37.012 87.000 C 37.227 87.000,37.333 86.885,37.333 86.651 C 37.333 86.442,37.467 86.267,37.668 86.215 C 37.904 86.153,38.033 85.936,38.106 85.480 C 38.183 84.996,38.288 84.833,38.521 84.833 C 38.743 84.833,38.833 84.713,38.833 84.417 C 38.833 84.083,38.917 84.000,39.250 84.000 C 39.556 84.000,39.667 83.911,39.667 83.667 C 39.667 83.444,39.778 83.333,40.000 83.333 C 40.244 83.333,40.333 83.222,40.333 82.917 C 40.333 82.583,40.417 82.500,40.750 82.500 C 41.062 82.500,41.167 82.412,41.167 82.151 C 41.167 81.942,41.301 81.767,41.500 81.715 C 41.761 81.647,41.833 81.488,41.833 80.981 C 41.833 80.401,41.877 80.333,42.250 80.333 C 42.583 80.333,42.667 80.250,42.667 79.917 C 42.667 79.611,42.756 79.500,43.000 79.500 C 43.244 79.500,43.333 79.389,43.333 79.083 C 43.333 78.750,43.417 78.667,43.750 78.667 C 44.056 78.667,44.167 78.578,44.167 78.333 C 44.167 78.111,44.278 78.000,44.500 78.000 C 44.742 78.000,44.833 77.889,44.833 77.595 C 44.833 77.302,44.937 77.175,45.208 77.137 C 45.520 77.092,45.592 76.964,45.635 76.375 C 45.676 75.802,45.748 75.667,46.010 75.667 C 46.222 75.667,46.333 75.552,46.333 75.333 C 46.333 75.089,46.444 75.000,46.750 75.000 C 47.083 75.000,47.167 74.917,47.167 74.583 C 47.167 74.286,47.257 74.167,47.482 74.167 C 47.841 74.167,48.000 73.856,48.000 73.153 C 48.000 72.778,48.076 72.667,48.333 72.667 C 48.552 72.667,48.667 72.556,48.667 72.345 C 48.667 72.138,48.801 72.004,49.042 71.970 C 49.283 71.936,49.436 71.783,49.470 71.542 C 49.504 71.301,49.638 71.167,49.845 71.167 C 50.115 71.167,50.167 71.047,50.167 70.417 C 50.167 69.728,50.201 69.667,50.583 69.667 C 50.880 69.667,51.000 69.576,51.000 69.353 C 51.000 69.179,51.149 69.000,51.333 68.952 C 51.530 68.900,51.667 68.724,51.667 68.521 C 51.667 68.333,51.813 68.100,51.993 68.004 C 52.175 67.907,52.367 67.572,52.428 67.248 C 52.507 66.828,52.624 66.667,52.852 66.667 C 53.057 66.667,53.167 66.549,53.167 66.328 C 53.167 66.142,53.298 65.941,53.458 65.882 C 53.857 65.735,53.994 65.499,53.997 64.958 C 53.999 64.612,54.081 64.500,54.333 64.500 C 54.575 64.500,54.667 64.389,54.667 64.095 C 54.667 63.802,54.770 63.675,55.042 63.637 C 55.353 63.592,55.425 63.464,55.468 62.875 C 55.509 62.302,55.581 62.167,55.843 62.167 C 56.077 62.167,56.167 62.051,56.167 61.750 C 56.167 61.452,56.257 61.333,56.482 61.333 C 56.841 61.333,57.000 61.023,57.000 60.320 C 57.000 59.944,57.076 59.833,57.333 59.833 C 57.617 59.833,57.667 59.722,57.667 59.083 C 57.667 58.394,57.701 58.333,58.083 58.333 C 58.389 58.333,58.500 58.244,58.500 58.000 C 58.500 57.778,58.611 57.667,58.833 57.667 C 59.117 57.667,59.167 57.556,59.167 56.917 C 59.167 56.228,59.201 56.167,59.583 56.167 C 59.886 56.167,60.000 56.077,60.000 55.841 C 60.000 55.662,60.188 55.328,60.417 55.098 C 60.646 54.869,60.833 54.500,60.833 54.277 C 60.833 54.012,60.949 53.842,61.167 53.785 C 61.432 53.716,61.500 53.558,61.500 53.016 C 61.500 52.459,61.558 52.333,61.814 52.333 C 62.134 52.333,62.327 51.913,62.331 51.208 C 62.333 50.945,62.433 50.833,62.667 50.833 C 62.950 50.833,63.000 50.722,63.000 50.095 C 63.000 49.456,63.051 49.349,63.375 49.303 C 63.687 49.259,63.759 49.131,63.801 48.542 C 63.843 47.969,63.915 47.833,64.176 47.833 C 64.449 47.833,64.500 47.715,64.500 47.083 C 64.500 46.459,64.553 46.333,64.816 46.333 C 65.220 46.333,65.333 46.021,65.333 44.903 C 65.333 44.111,65.374 44.000,65.667 44.000 C 65.965 44.000,66.000 43.889,66.000 42.928 C 66.000 41.944,66.031 41.852,66.375 41.803 C 66.713 41.755,66.755 41.645,66.800 40.676 C 66.840 39.838,66.922 39.553,67.175 39.375 C 67.689 39.015,67.681 27.683,67.167 27.548 C 66.872 27.471,66.833 27.321,66.833 26.244 C 66.833 24.811,66.741 24.500,66.316 24.500 C 66.039 24.500,66.000 24.369,66.000 23.428 C 66.000 22.502,65.954 22.341,65.667 22.250 C 65.404 22.167,65.333 21.997,65.331 21.447 C 65.328 20.429,65.174 20.000,64.814 20.000 C 64.590 20.000,64.500 19.880,64.500 19.583 C 64.500 19.282,64.410 19.167,64.176 19.167 C 63.915 19.167,63.843 19.031,63.801 18.458 C 63.759 17.869,63.687 17.741,63.375 17.697 C 63.051 17.651,63.000 17.544,63.000 16.905 C 63.000 16.289,62.947 16.167,62.681 16.167 C 62.440 16.167,62.336 16.007,62.251 15.507 C 62.177 15.065,62.034 14.814,61.820 14.746 C 61.644 14.690,61.500 14.499,61.500 14.322 C 61.500 14.115,61.385 14.000,61.178 14.000 C 60.971 14.000,60.837 13.866,60.803 13.625 C 60.769 13.384,60.616 13.231,60.375 13.197 C 60.134 13.163,60.000 13.029,60.000 12.822 C 60.000 12.590,59.884 12.500,59.583 12.500 C 59.250 12.500,59.167 12.417,59.167 12.083 C 59.167 11.778,59.078 11.667,58.833 11.667 C 58.611 11.667,58.500 11.556,58.500 11.333 C 58.500 11.089,58.389 11.000,58.083 11.000 C 57.750 11.000,57.667 10.917,57.667 10.583 C 57.667 10.278,57.578 10.167,57.333 10.167 C 57.111 10.167,57.000 10.056,57.000 9.833 C 57.000 9.589,56.889 9.500,56.583 9.500 C 56.250 9.500,56.167 9.417,56.167 9.083 C 56.167 8.778,56.078 8.667,55.833 8.667 C 55.611 8.667,55.500 8.556,55.500 8.333 C 55.500 8.089,55.389 8.000,55.083 8.000 C 54.750 8.000,54.667 7.917,54.667 7.583 C 54.667 7.286,54.576 7.167,54.353 7.167 C 54.180 7.167,54.002 7.025,53.956 6.851 C 53.900 6.636,53.662 6.500,53.203 6.423 C 52.739 6.344,52.507 6.211,52.449 5.988 C 52.383 5.738,52.216 5.667,51.694 5.667 C 51.125 5.667,51.015 5.610,50.970 5.292 C 50.926 4.982,50.797 4.908,50.225 4.866 C 49.706 4.828,49.513 4.735,49.449 4.491 C 49.399 4.300,49.221 4.167,49.016 4.167 C 48.786 4.167,48.667 4.060,48.667 3.854 C 48.667 3.510,48.095 3.333,46.979 3.333 C 46.444 3.333,46.333 3.276,46.333 3.000 C 46.333 2.701,46.222 2.667,45.250 2.667 C 44.410 2.667,44.167 2.612,44.167 2.423 C 44.167 2.022,43.591 1.833,42.364 1.833 C 41.346 1.833,41.195 1.793,41.118 1.500 C 41.034 1.179,28.636 0.970,27.875 1.277 M38.167 14.981 C 38.167 15.376,38.599 15.495,40.042 15.498 C 41.055 15.500,41.167 15.533,41.167 15.833 C 41.167 16.117,41.278 16.167,41.905 16.167 C 42.544 16.167,42.651 16.217,42.697 16.542 C 42.741 16.853,42.869 16.925,43.458 16.968 C 44.031 17.009,44.167 17.081,44.167 17.343 C 44.167 17.616,44.285 17.667,44.917 17.667 C 45.606 17.667,45.667 17.701,45.667 18.083 C 45.667 18.417,45.750 18.500,46.083 18.500 C 46.389 18.500,46.500 18.589,46.500 18.833 C 46.500 19.056,46.611 19.167,46.833 19.167 C 47.078 19.167,47.167 19.278,47.167 19.583 C 47.167 19.917,47.250 20.000,47.583 20.000 C 47.889 20.000,48.000 20.089,48.000 20.333 C 48.000 20.556,48.111 20.667,48.333 20.667 C 48.578 20.667,48.667 20.778,48.667 21.083 C 48.667 21.417,48.750 21.500,49.083 21.500 C 49.460 21.500,49.500 21.566,49.500 22.182 C 49.500 22.724,49.568 22.882,49.833 22.952 C 50.018 23.000,50.167 23.179,50.167 23.353 C 50.167 23.576,50.286 23.667,50.583 23.667 C 50.966 23.667,51.000 23.728,51.000 24.417 C 51.000 25.056,51.049 25.167,51.333 25.167 C 51.623 25.167,51.667 25.278,51.667 26.011 C 51.667 26.948,51.885 27.500,52.256 27.500 C 52.445 27.500,52.500 27.742,52.500 28.572 C 52.500 29.498,52.546 29.659,52.833 29.750 C 53.154 29.852,53.167 30.002,53.167 33.595 C 53.167 37.222,53.157 37.333,52.833 37.333 C 52.534 37.333,52.500 37.444,52.500 38.421 C 52.500 39.427,52.469 39.520,52.083 39.667 C 51.703 39.811,51.667 39.911,51.667 40.829 C 51.667 41.722,51.630 41.833,51.333 41.833 C 51.049 41.833,51.000 41.944,51.000 42.583 C 51.000 43.272,50.966 43.333,50.583 43.333 C 50.250 43.333,50.167 43.417,50.167 43.750 C 50.167 44.056,50.078 44.167,49.833 44.167 C 49.549 44.167,49.500 44.278,49.500 44.917 C 49.500 45.606,49.466 45.667,49.083 45.667 C 48.778 45.667,48.667 45.756,48.667 46.000 C 48.667 46.222,48.556 46.333,48.333 46.333 C 48.089 46.333,48.000 46.444,48.000 46.750 C 48.000 47.083,47.917 47.167,47.583 47.167 C 47.278 47.167,47.167 47.256,47.167 47.500 C 47.167 47.744,47.056 47.833,46.750 47.833 C 46.382 47.833,46.332 47.906,46.322 48.458 C 46.302 49.526,45.395 50.446,44.040 50.771 C 43.789 50.831,43.449 51.020,43.285 51.190 C 43.102 51.381,42.754 51.500,42.379 51.500 C 41.978 51.500,41.636 51.628,41.373 51.875 C 40.625 52.578,28.806 52.532,27.988 51.823 C 27.783 51.645,27.375 51.500,27.080 51.500 C 26.786 51.500,26.360 51.355,26.134 51.177 C 25.908 50.999,25.522 50.803,25.275 50.741 C 25.028 50.679,24.729 50.491,24.611 50.322 C 24.493 50.154,24.213 49.933,23.990 49.832 C 23.192 49.472,22.576 49.077,22.166 48.664 C 20.980 47.468,20.920 47.353,20.833 46.112 C 20.758 45.029,20.715 44.912,20.375 44.863 C 20.134 44.829,20.000 44.695,20.000 44.488 C 20.000 44.256,19.884 44.167,19.583 44.167 C 19.201 44.167,19.167 44.106,19.167 43.417 C 19.167 42.778,19.117 42.667,18.833 42.667 C 18.589 42.667,18.500 42.556,18.500 42.250 C 18.500 41.917,18.417 41.833,18.083 41.833 C 17.682 41.833,17.667 41.794,17.667 40.750 C 17.667 39.778,17.632 39.667,17.333 39.667 C 17.041 39.667,17.000 39.556,17.000 38.764 C 17.000 37.646,16.887 37.333,16.482 37.333 C 16.180 37.333,16.167 37.138,16.167 32.851 L 16.167 28.369 16.583 28.265 C 16.974 28.167,17.000 28.093,17.000 27.080 C 17.000 26.111,17.034 26.000,17.333 26.000 C 17.617 26.000,17.667 25.889,17.667 25.262 C 17.667 24.623,17.717 24.516,18.042 24.470 C 18.353 24.426,18.425 24.297,18.468 23.708 C 18.509 23.136,18.581 23.000,18.843 23.000 C 19.116 23.000,19.167 22.881,19.167 22.250 C 19.167 21.561,19.201 21.500,19.583 21.500 C 19.913 21.500,20.000 21.416,20.000 21.095 C 20.000 20.802,20.104 20.675,20.375 20.637 C 20.687 20.592,20.759 20.464,20.801 19.875 L 20.852 19.167 21.593 19.167 C 22.222 19.167,22.333 19.117,22.333 18.833 C 22.333 18.611,22.444 18.500,22.667 18.500 C 22.911 18.500,23.000 18.389,23.000 18.083 C 23.000 17.701,23.061 17.667,23.750 17.667 C 24.389 17.667,24.500 17.617,24.500 17.333 C 24.500 17.049,24.611 17.000,25.250 17.000 C 25.939 17.000,26.000 16.966,26.000 16.583 C 26.000 16.201,26.061 16.167,26.750 16.167 C 27.383 16.167,27.500 16.116,27.500 15.841 C 27.500 15.555,27.637 15.509,28.625 15.466 C 29.647 15.421,29.755 15.382,29.803 15.042 L 29.857 14.667 34.012 14.667 C 37.970 14.667,38.167 14.682,38.167 14.981 M121.167 19.583 C 121.167 19.988,121.133 20.000,120.000 20.000 L 118.833 20.000 118.833 27.167 C 118.833 34.136,118.824 34.333,118.512 34.333 C 118.305 34.333,118.171 34.199,118.137 33.958 L 118.083 33.583 112.833 33.537 C 107.118 33.486,106.833 33.508,106.833 34.003 C 106.833 34.283,106.720 34.333,106.083 34.333 C 105.444 34.333,105.333 34.383,105.333 34.667 C 105.333 34.901,105.221 35.001,104.958 35.002 C 104.253 35.007,103.833 35.200,103.833 35.519 C 103.833 35.743,103.714 35.833,103.417 35.833 C 103.111 35.833,103.000 35.922,103.000 36.167 C 103.000 36.389,102.889 36.500,102.667 36.500 C 102.422 36.500,102.333 36.611,102.333 36.917 C 102.333 37.250,102.250 37.333,101.917 37.333 C 101.620 37.333,101.500 37.424,101.500 37.647 C 101.500 37.821,101.351 38.000,101.167 38.048 C 100.903 38.117,100.833 38.276,100.833 38.806 C 100.833 39.375,100.776 39.485,100.458 39.530 C 100.147 39.574,100.075 39.703,100.032 40.292 C 99.997 40.780,99.905 41.000,99.736 41.000 C 99.411 41.000,99.167 41.684,99.167 42.594 C 99.167 43.222,99.117 43.333,98.833 43.333 C 98.514 43.333,98.500 43.444,98.500 46.000 C 98.500 48.556,98.486 48.667,98.167 48.667 C 97.870 48.667,97.833 48.778,97.833 49.682 C 97.833 50.558,97.879 50.710,98.167 50.785 C 98.482 50.867,98.500 51.012,98.500 53.452 C 98.500 55.891,98.518 56.036,98.833 56.118 C 99.034 56.171,99.168 56.347,99.169 56.561 C 99.173 57.247,99.369 57.667,99.686 57.667 C 99.947 57.667,100.000 57.793,100.000 58.417 C 100.000 59.106,100.034 59.167,100.417 59.167 C 100.799 59.167,100.833 59.228,100.833 59.917 C 100.833 60.556,100.883 60.667,101.167 60.667 C 101.389 60.667,101.500 60.778,101.500 61.000 C 101.500 61.244,101.611 61.333,101.917 61.333 C 102.250 61.333,102.333 61.417,102.333 61.750 C 102.333 62.051,102.423 62.167,102.655 62.167 C 102.862 62.167,102.996 62.301,103.030 62.542 C 103.064 62.783,103.217 62.936,103.458 62.970 C 103.699 63.004,103.833 63.138,103.833 63.345 C 103.833 63.615,103.953 63.667,104.583 63.667 C 105.225 63.667,105.333 63.715,105.333 64.004 C 105.333 64.206,105.492 64.402,105.727 64.491 C 105.944 64.574,106.167 64.759,106.222 64.904 C 106.298 65.103,106.567 65.167,107.328 65.167 C 108.214 65.167,108.333 65.205,108.333 65.492 C 108.333 65.986,108.811 66.017,115.583 65.965 L 121.750 65.917 121.803 65.542 C 121.855 65.178,121.913 65.167,123.762 65.167 C 125.556 65.167,125.667 65.147,125.667 64.833 C 125.667 64.611,125.778 64.500,126.000 64.500 C 126.332 64.500,126.333 64.389,126.333 41.833 L 126.333 19.167 123.750 19.167 L 121.167 19.167 121.167 19.583 M223.833 21.083 C 223.833 21.417,223.750 21.500,223.417 21.500 C 223.120 21.500,223.000 21.590,223.000 21.814 C 223.000 21.988,222.851 22.167,222.667 22.215 C 222.352 22.297,222.333 22.442,222.333 24.833 C 222.333 27.224,222.352 27.369,222.667 27.452 C 222.850 27.500,223.000 27.672,223.000 27.835 C 223.000 28.176,223.320 28.333,224.014 28.333 C 224.389 28.333,224.500 28.409,224.500 28.667 C 224.500 28.984,224.611 29.000,226.750 29.000 C 228.862 29.000,229.000 28.980,229.000 28.678 C 229.000 28.471,229.134 28.337,229.375 28.303 C 229.616 28.269,229.769 28.116,229.803 27.875 C 229.837 27.634,229.971 27.500,230.178 27.500 C 230.448 27.500,230.500 27.380,230.500 26.750 C 230.500 26.061,230.534 26.000,230.917 26.000 C 231.324 26.000,231.333 25.971,231.333 24.764 C 231.333 23.311,231.242 23.000,230.816 23.000 C 230.553 23.000,230.500 22.875,230.500 22.250 C 230.500 21.611,230.451 21.500,230.167 21.500 C 229.951 21.500,229.833 21.389,229.833 21.184 C 229.833 20.712,229.547 20.667,226.570 20.667 L 223.833 20.667 223.833 21.083 M247.215 21.833 C 247.135 22.138,246.988 22.167,245.492 22.167 C 243.884 22.167,243.333 22.340,243.333 22.845 C 243.333 22.930,243.026 23.000,242.651 23.000 C 242.109 23.000,241.951 23.068,241.882 23.333 C 241.829 23.534,241.653 23.668,241.439 23.669 C 240.753 23.673,240.333 23.869,240.333 24.186 C 240.333 24.389,240.215 24.500,240.000 24.500 C 239.784 24.500,239.667 24.611,239.667 24.815 C 239.667 25.013,239.511 25.170,239.250 25.235 C 238.981 25.303,238.833 25.457,238.833 25.670 C 238.833 25.889,238.721 26.000,238.500 26.000 C 238.256 26.000,238.167 26.111,238.167 26.417 C 238.167 26.750,238.083 26.833,237.750 26.833 C 237.367 26.833,237.333 26.894,237.333 27.583 C 237.333 28.222,237.284 28.333,237.000 28.333 C 236.701 28.333,236.667 28.444,236.667 29.417 C 236.667 30.461,236.652 30.500,236.250 30.500 L 235.833 30.500 235.833 33.754 L 235.833 37.007 236.250 37.197 C 236.601 37.357,236.667 37.500,236.667 38.110 C 236.667 38.715,236.720 38.833,236.990 38.833 C 237.252 38.833,237.324 38.969,237.365 39.542 C 237.408 40.131,237.480 40.259,237.792 40.303 C 238.033 40.337,238.167 40.471,238.167 40.678 C 238.167 40.889,238.282 41.000,238.500 41.000 C 238.744 41.000,238.833 41.111,238.833 41.417 C 238.833 41.750,238.917 41.833,239.250 41.833 C 239.556 41.833,239.667 41.922,239.667 42.167 C 239.667 42.383,239.778 42.500,239.982 42.500 C 240.179 42.500,240.336 42.656,240.402 42.917 C 240.491 43.274,240.601 43.333,241.170 43.333 C 241.722 43.333,241.833 43.389,241.833 43.667 C 241.833 43.950,241.944 44.000,242.572 44.000 C 243.211 44.000,243.317 44.051,243.363 44.375 C 243.409 44.695,243.533 44.757,244.208 44.801 C 244.844 44.842,245.000 44.911,245.000 45.155 C 245.000 45.479,245.581 45.667,246.585 45.667 C 246.988 45.667,247.150 45.753,247.215 46.000 C 247.291 46.290,247.442 46.333,248.389 46.333 C 249.390 46.333,249.481 46.363,249.530 46.708 C 249.574 47.018,249.703 47.092,250.275 47.134 C 250.794 47.172,250.987 47.265,251.051 47.509 C 251.117 47.764,251.282 47.833,251.818 47.833 C 252.382 47.833,252.500 47.889,252.500 48.156 C 252.500 48.412,252.658 48.503,253.250 48.592 C 253.834 48.680,254.000 48.774,254.000 49.019 C 254.000 49.218,254.118 49.333,254.322 49.333 C 254.529 49.333,254.663 49.467,254.697 49.708 C 254.731 49.949,254.884 50.102,255.125 50.137 C 255.441 50.182,255.500 50.292,255.500 50.845 C 255.500 51.389,255.557 51.500,255.833 51.500 C 256.148 51.500,256.167 51.611,256.167 53.500 C 256.167 55.389,256.148 55.500,255.833 55.500 C 255.557 55.500,255.500 55.611,255.500 56.155 C 255.500 56.708,255.441 56.818,255.125 56.863 C 254.884 56.898,254.731 57.051,254.697 57.292 C 254.651 57.616,254.544 57.667,253.905 57.667 C 253.278 57.667,253.167 57.717,253.167 58.000 C 253.167 58.303,253.056 58.333,251.930 58.333 C 250.477 58.333,250.167 58.425,250.167 58.851 C 250.167 59.142,250.019 59.167,248.250 59.167 C 246.481 59.167,246.333 59.142,246.333 58.851 C 246.333 58.409,246.026 58.333,244.236 58.333 C 242.778 58.333,242.667 58.310,242.667 58.000 C 242.667 57.698,242.556 57.667,241.500 57.667 C 240.367 57.667,240.333 57.655,240.333 57.250 C 240.333 56.867,240.272 56.833,239.583 56.833 C 238.939 56.833,238.833 56.785,238.833 56.492 C 238.833 56.179,238.746 56.155,237.792 56.200 L 236.750 56.250 236.701 57.275 C 236.656 58.207,236.614 58.310,236.242 58.404 C 235.861 58.499,235.833 58.579,235.833 59.587 C 235.833 60.556,235.799 60.667,235.500 60.667 C 235.216 60.667,235.167 60.778,235.167 61.417 C 235.167 62.047,235.218 62.167,235.488 62.167 C 235.695 62.167,235.829 62.301,235.863 62.542 C 235.908 62.853,236.036 62.925,236.625 62.968 C 237.198 63.009,237.333 63.081,237.333 63.343 C 237.333 63.632,237.456 63.667,238.488 63.667 C 239.559 63.667,239.647 63.694,239.697 64.042 C 239.747 64.394,239.840 64.420,241.208 64.465 C 242.530 64.508,242.667 64.544,242.667 64.840 C 242.667 65.358,253.816 65.351,253.952 64.833 C 254.029 64.538,254.179 64.500,255.256 64.500 C 256.689 64.500,257.000 64.408,257.000 63.982 C 257.000 63.719,257.125 63.667,257.750 63.667 C 258.381 63.667,258.500 63.616,258.500 63.343 C 258.500 63.081,258.636 63.009,259.208 62.968 C 259.797 62.925,259.926 62.853,259.970 62.542 C 260.008 62.270,260.135 62.167,260.428 62.167 C 260.749 62.167,260.833 62.080,260.833 61.750 C 260.833 61.444,260.922 61.333,261.167 61.333 C 261.389 61.333,261.500 61.222,261.500 61.000 C 261.500 60.756,261.611 60.667,261.917 60.667 C 262.250 60.667,262.333 60.583,262.333 60.250 C 262.333 59.944,262.422 59.833,262.667 59.833 C 262.951 59.833,263.000 59.722,263.000 59.083 C 263.000 58.394,263.034 58.333,263.417 58.333 C 263.818 58.333,263.833 58.294,263.833 57.250 C 263.833 56.278,263.868 56.167,264.167 56.167 C 264.680 56.167,264.687 50.351,264.174 50.217 C 263.898 50.145,263.840 49.960,263.799 49.024 C 263.755 48.020,263.715 47.912,263.375 47.863 C 263.051 47.817,263.000 47.711,263.000 47.072 C 263.000 46.444,262.950 46.333,262.667 46.333 C 262.444 46.333,262.333 46.222,262.333 46.000 C 262.333 45.756,262.222 45.667,261.917 45.667 C 261.583 45.667,261.500 45.583,261.500 45.250 C 261.500 44.944,261.411 44.833,261.167 44.833 C 260.944 44.833,260.833 44.722,260.833 44.500 C 260.833 44.256,260.722 44.167,260.417 44.167 C 260.083 44.167,260.000 44.083,260.000 43.750 C 260.000 43.417,259.917 43.333,259.583 43.333 C 259.278 43.333,259.167 43.244,259.167 43.000 C 259.167 42.766,259.055 42.666,258.792 42.664 C 258.087 42.660,257.667 42.467,257.667 42.147 C 257.667 41.886,257.540 41.833,256.917 41.833 C 256.294 41.833,256.167 41.780,256.167 41.521 C 256.167 41.185,255.597 41.000,254.563 41.000 C 254.111 41.000,254.000 40.934,254.000 40.667 C 254.000 40.385,253.889 40.333,253.290 40.333 C 252.713 40.333,252.548 40.263,252.415 39.958 C 252.273 39.636,252.104 39.576,251.208 39.534 C 250.303 39.491,250.167 39.441,250.167 39.159 C 250.167 38.885,250.050 38.833,249.428 38.833 C 248.789 38.833,248.683 38.783,248.637 38.458 C 248.592 38.147,248.464 38.075,247.875 38.032 C 247.302 37.991,247.167 37.919,247.167 37.657 C 247.167 37.384,247.048 37.333,246.417 37.333 C 245.728 37.333,245.667 37.299,245.667 36.917 C 245.667 36.583,245.583 36.500,245.250 36.500 C 244.944 36.500,244.833 36.411,244.833 36.167 C 244.833 35.947,244.722 35.833,244.508 35.833 C 244.221 35.833,244.176 35.697,244.133 34.708 C 244.088 33.686,244.049 33.578,243.708 33.530 C 243.440 33.492,243.333 33.364,243.333 33.083 C 243.333 32.802,243.440 32.675,243.708 32.637 C 244.045 32.589,244.088 32.477,244.133 31.542 C 244.176 30.637,244.225 30.500,244.508 30.500 C 244.718 30.500,244.833 30.386,244.833 30.178 C 244.833 29.971,244.967 29.837,245.208 29.803 C 245.449 29.769,245.602 29.616,245.637 29.375 C 245.683 29.051,245.789 29.000,246.428 29.000 C 247.056 29.000,247.167 28.950,247.167 28.667 C 247.167 28.343,247.278 28.333,250.981 28.333 C 254.654 28.333,254.798 28.346,254.882 28.667 C 254.957 28.953,255.109 29.000,255.965 29.000 C 256.807 29.000,256.974 29.049,257.045 29.320 C 257.218 29.983,260.707 30.049,260.801 29.392 C 260.829 29.195,260.998 28.996,261.176 28.949 C 261.450 28.878,261.500 28.715,261.500 27.888 C 261.500 27.036,261.548 26.892,261.875 26.748 C 262.207 26.602,262.256 26.445,262.299 25.360 C 262.356 23.954,262.206 23.667,261.416 23.667 C 261.012 23.667,260.850 23.581,260.785 23.333 C 260.709 23.043,260.558 23.000,259.599 23.000 C 258.632 23.000,258.500 22.962,258.500 22.684 C 258.500 22.229,258.200 22.167,255.986 22.167 C 254.111 22.167,254.000 22.148,254.000 21.833 C 254.000 21.511,253.889 21.500,250.651 21.500 C 247.442 21.500,247.298 21.514,247.215 21.833 M381.792 22.282 C 381.631 22.323,381.500 22.502,381.500 22.679 C 381.500 22.962,381.375 23.000,380.434 23.000 C 379.617 23.000,379.345 23.061,379.268 23.264 C 379.134 23.613,379.137 52.642,379.271 53.313 C 379.343 53.674,379.471 53.833,379.688 53.833 C 379.975 53.833,380.000 53.987,380.000 55.750 L 380.000 57.667 380.417 57.667 C 380.818 57.667,380.833 57.706,380.833 58.750 C 380.833 59.722,380.868 59.833,381.167 59.833 C 381.411 59.833,381.500 59.944,381.500 60.250 C 381.500 60.583,381.583 60.667,381.917 60.667 C 382.222 60.667,382.333 60.756,382.333 61.000 C 382.333 61.222,382.444 61.333,382.667 61.333 C 382.911 61.333,383.000 61.444,383.000 61.750 C 383.000 62.132,383.062 62.167,383.738 62.167 C 384.377 62.167,384.484 62.217,384.530 62.542 C 384.578 62.882,384.686 62.921,385.708 62.966 C 386.697 63.009,386.833 63.055,386.833 63.341 C 386.833 63.856,394.920 63.849,395.083 63.333 C 395.172 63.055,395.336 63.000,396.074 63.000 C 397.410 63.000,398.000 62.843,398.000 62.488 C 398.000 62.245,398.156 62.175,398.792 62.134 L 399.583 62.083 399.633 60.961 C 399.684 59.796,399.491 59.167,399.084 59.167 C 398.900 59.167,398.835 58.837,398.798 57.708 L 398.750 56.250 396.958 56.203 C 395.252 56.158,395.167 56.172,395.167 56.494 C 395.167 56.794,395.061 56.833,394.264 56.833 C 393.146 56.833,392.833 56.947,392.833 57.351 C 392.833 57.879,390.545 57.822,390.470 57.292 C 390.426 56.980,390.297 56.908,389.708 56.865 C 389.136 56.824,389.000 56.752,389.000 56.490 C 389.000 56.278,388.886 56.167,388.667 56.167 C 388.446 56.167,388.333 56.056,388.333 55.837 C 388.333 55.623,388.186 55.469,387.917 55.402 C 387.551 55.310,387.500 55.207,387.500 54.565 C 387.500 53.944,387.449 53.833,387.167 53.833 C 386.838 53.833,386.833 53.722,386.833 45.586 L 386.833 37.338 392.458 37.294 L 398.083 37.250 398.129 34.292 L 398.174 31.333 392.504 31.333 L 386.833 31.333 386.833 26.851 C 386.833 22.918,386.801 22.357,386.570 22.268 C 386.271 22.153,382.239 22.165,381.792 22.282 M271.383 23.327 C 271.308 23.615,271.126 23.660,269.857 23.702 L 268.417 23.750 268.374 39.474 C 268.332 55.089,268.334 55.198,268.666 55.285 C 268.964 55.363,269.000 55.511,269.000 56.665 C 269.000 58.364,269.141 59.025,269.525 59.125 C 269.766 59.188,269.833 59.366,269.833 59.936 C 269.833 60.556,269.884 60.667,270.167 60.667 C 270.389 60.667,270.500 60.778,270.500 61.000 C 270.500 61.244,270.611 61.333,270.917 61.333 C 271.250 61.333,271.333 61.417,271.333 61.750 C 271.333 62.048,271.423 62.167,271.649 62.167 C 271.846 62.167,272.003 62.323,272.068 62.583 C 272.133 62.841,272.291 63.000,272.484 63.000 C 272.655 63.000,272.834 63.150,272.882 63.333 C 272.958 63.624,273.109 63.667,274.068 63.667 C 275.052 63.667,275.167 63.701,275.167 63.997 C 275.167 64.486,275.483 64.515,280.333 64.463 L 284.750 64.417 284.803 64.042 C 284.853 63.694,284.941 63.667,286.012 63.667 C 287.044 63.667,287.167 63.632,287.167 63.343 C 287.167 63.081,287.302 63.009,287.875 62.968 L 288.583 62.917 288.633 61.792 C 288.678 60.760,288.654 60.667,288.347 60.667 C 288.042 60.667,288.009 60.541,287.965 59.208 C 287.920 57.852,287.891 57.746,287.552 57.698 C 287.325 57.666,287.168 57.509,287.135 57.281 C 287.049 56.673,285.055 56.638,284.904 57.242 C 284.803 57.642,284.734 57.667,283.732 57.667 C 282.778 57.667,282.667 57.701,282.667 58.000 C 282.667 58.314,282.556 58.333,280.750 58.333 C 278.944 58.333,278.833 58.314,278.833 58.000 C 278.833 57.716,278.722 57.667,278.083 57.667 L 277.333 57.667 277.333 56.984 C 277.333 56.448,277.264 56.284,277.009 56.217 C 276.765 56.153,276.672 55.961,276.634 55.441 C 276.592 54.870,276.518 54.741,276.208 54.697 L 275.833 54.643 275.833 46.322 L 275.833 38.000 281.500 38.000 L 287.167 38.000 287.167 35.000 L 287.167 32.000 281.500 32.000 L 275.833 32.000 275.833 27.500 L 275.833 23.000 273.651 23.000 C 271.623 23.000,271.463 23.023,271.383 23.327 M202.958 23.779 C 202.798 23.822,202.667 24.000,202.667 24.173 C 202.667 24.462,202.504 24.493,200.792 24.536 L 198.917 24.583 198.871 27.121 L 198.825 29.658 199.246 29.764 L 199.667 29.869 199.667 44.101 C 199.667 58.111,199.672 58.333,199.992 58.333 C 200.279 58.333,200.324 58.470,200.367 59.458 C 200.412 60.481,200.451 60.588,200.792 60.637 C 201.110 60.682,201.167 60.792,201.167 61.361 C 201.167 61.880,201.238 62.050,201.485 62.114 C 201.659 62.160,201.841 62.346,201.889 62.528 C 201.936 62.709,202.124 62.897,202.306 62.944 C 202.487 62.992,202.673 63.174,202.719 63.349 C 202.783 63.595,202.953 63.667,203.473 63.667 C 204.041 63.667,204.152 63.724,204.197 64.042 C 204.245 64.382,204.353 64.421,205.375 64.466 C 206.363 64.509,206.500 64.555,206.500 64.841 C 206.500 65.156,206.646 65.167,211.000 65.167 C 215.389 65.167,215.500 65.158,215.500 64.833 C 215.500 64.541,215.611 64.500,216.396 64.500 C 217.705 64.500,218.365 64.332,218.458 63.975 C 218.503 63.805,218.680 63.667,218.853 63.667 C 219.350 63.667,219.331 60.075,218.833 59.917 C 218.546 59.825,218.500 59.664,218.500 58.739 L 218.500 57.667 217.000 57.667 C 215.626 57.667,215.500 57.694,215.500 57.990 C 215.500 58.252,215.364 58.324,214.792 58.365 C 214.203 58.408,214.074 58.480,214.030 58.792 C 213.953 59.336,210.167 59.387,210.167 58.844 C 210.167 58.588,210.009 58.497,209.417 58.408 C 208.833 58.320,208.667 58.226,208.667 57.981 C 208.667 57.783,208.549 57.667,208.348 57.667 C 208.104 57.667,208.002 57.505,207.913 56.980 C 207.834 56.511,207.698 56.267,207.487 56.212 C 207.212 56.140,207.172 55.921,207.130 54.274 C 207.085 52.491,207.068 52.415,206.708 52.363 L 206.333 52.310 206.333 45.572 L 206.333 38.833 212.000 38.833 L 217.667 38.833 217.667 35.833 L 217.667 32.833 212.003 32.833 L 206.339 32.833 206.294 28.292 L 206.250 23.750 204.750 23.725 C 203.925 23.711,203.119 23.735,202.958 23.779 M84.167 36.917 C 84.167 49.203,84.170 49.333,84.498 49.333 C 84.825 49.333,84.831 49.472,84.873 57.625 L 84.917 65.917 88.667 65.917 L 92.417 65.917 92.417 58.417 L 92.417 50.917 92.042 50.863 L 91.667 50.810 91.667 37.655 L 91.667 24.500 87.917 24.500 L 84.167 24.500 84.167 36.917 M357.444 30.611 C 357.383 30.672,357.333 30.860,357.333 31.028 C 357.333 31.301,357.177 31.333,355.833 31.333 C 354.444 31.333,354.333 31.358,354.333 31.667 C 354.333 31.951,354.222 32.000,353.583 32.000 C 352.894 32.000,352.833 32.034,352.833 32.417 C 352.833 32.799,352.772 32.833,352.083 32.833 C 351.444 32.833,351.333 32.883,351.333 33.167 C 351.333 33.388,351.222 33.500,351.003 33.500 C 350.790 33.500,350.636 33.648,350.568 33.917 C 350.503 34.177,350.346 34.333,350.149 34.333 C 349.948 34.333,349.833 34.451,349.833 34.655 C 349.833 34.862,349.699 34.996,349.458 35.030 C 349.217 35.064,349.064 35.217,349.030 35.458 C 348.996 35.699,348.862 35.833,348.655 35.833 C 348.385 35.833,348.333 35.953,348.333 36.583 C 348.333 37.272,348.299 37.333,347.917 37.333 C 347.534 37.333,347.500 37.394,347.500 38.083 C 347.500 38.722,347.451 38.833,347.167 38.833 C 346.883 38.833,346.833 38.944,346.833 39.572 C 346.833 40.211,346.783 40.317,346.458 40.363 C 346.098 40.415,346.081 40.491,346.036 42.292 C 345.993 44.029,345.965 44.167,345.661 44.167 C 345.146 44.167,345.151 49.984,345.667 50.118 C 345.974 50.199,346.000 50.346,346.000 52.019 L 346.000 53.833 346.417 53.833 C 346.821 53.833,346.833 53.867,346.833 55.000 C 346.833 56.044,346.867 56.167,347.157 56.167 C 347.419 56.167,347.491 56.302,347.532 56.875 C 347.575 57.464,347.647 57.592,347.958 57.637 C 348.199 57.671,348.333 57.805,348.333 58.012 C 348.333 58.216,348.448 58.333,348.648 58.333 C 348.893 58.333,348.987 58.499,349.075 59.083 C 349.186 59.824,349.195 59.833,349.832 59.833 C 350.374 59.833,350.485 59.893,350.530 60.208 C 350.564 60.449,350.717 60.602,350.958 60.637 C 351.199 60.671,351.333 60.805,351.333 61.012 C 351.333 61.241,351.449 61.333,351.738 61.333 C 352.032 61.333,352.158 61.437,352.197 61.708 C 352.241 62.020,352.369 62.092,352.958 62.135 C 353.513 62.175,353.667 62.252,353.667 62.489 C 353.667 62.850,354.260 63.000,355.688 63.000 C 356.556 63.000,356.667 63.038,356.667 63.333 C 356.667 63.660,356.778 63.667,361.917 63.667 C 367.021 63.667,367.167 63.658,367.167 63.340 C 367.167 63.044,367.304 63.008,368.625 62.965 C 369.993 62.920,370.087 62.894,370.137 62.542 C 370.183 62.217,370.289 62.167,370.928 62.167 L 371.667 62.167 371.667 59.917 C 371.667 57.778,371.650 57.667,371.333 57.667 C 371.049 57.667,371.000 57.556,371.000 56.917 L 371.000 56.167 369.500 56.167 C 368.123 56.167,368.000 56.193,368.000 56.492 C 368.000 56.779,367.863 56.824,366.875 56.867 C 365.853 56.912,365.745 56.951,365.697 57.292 C 365.620 57.833,359.667 57.892,359.667 57.351 C 359.667 56.947,359.354 56.833,358.236 56.833 C 357.444 56.833,357.333 56.792,357.333 56.500 C 357.333 56.285,357.222 56.167,357.019 56.167 C 356.842 56.167,356.666 56.016,356.615 55.821 C 356.565 55.631,356.369 55.435,356.179 55.385 C 355.984 55.334,355.833 55.158,355.833 54.981 C 355.833 54.782,355.716 54.667,355.512 54.667 C 355.305 54.667,355.171 54.533,355.137 54.292 C 355.102 54.051,354.949 53.898,354.708 53.863 C 354.384 53.817,354.333 53.711,354.333 53.072 C 354.333 52.444,354.283 52.333,354.000 52.333 C 353.697 52.333,353.667 52.222,353.667 51.097 C 353.667 50.417,353.621 49.742,353.566 49.597 C 353.474 49.358,354.438 49.333,363.732 49.333 L 374.000 49.333 374.000 46.000 L 374.000 42.667 373.583 42.667 L 373.167 42.667 373.167 40.750 C 373.167 38.944,373.147 38.833,372.833 38.833 C 372.549 38.833,372.500 38.722,372.500 38.083 C 372.500 37.394,372.466 37.333,372.083 37.333 C 371.701 37.333,371.667 37.272,371.667 36.583 C 371.667 35.959,371.614 35.833,371.352 35.833 C 371.107 35.833,371.013 35.667,370.925 35.083 C 370.837 34.491,370.745 34.333,370.490 34.333 C 370.279 34.333,370.167 34.219,370.167 34.003 C 370.167 33.790,370.019 33.636,369.750 33.568 C 369.489 33.503,369.333 33.346,369.333 33.149 C 369.333 32.893,369.210 32.833,368.678 32.833 C 368.126 32.833,368.015 32.775,367.970 32.458 C 367.924 32.138,367.801 32.076,367.125 32.033 C 366.469 31.990,366.333 31.926,366.333 31.658 C 366.333 31.360,366.208 31.333,364.833 31.333 C 363.344 31.333,363.333 31.330,363.333 30.917 L 363.333 30.500 360.444 30.500 C 358.856 30.500,357.506 30.550,357.444 30.611 M300.000 31.667 C 300.000 31.981,299.889 32.000,298.014 32.000 C 295.800 32.000,295.500 32.062,295.500 32.518 C 295.500 32.797,295.367 32.833,294.333 32.833 C 293.278 32.833,293.167 32.865,293.167 33.167 C 293.167 33.389,293.056 33.500,292.833 33.500 C 292.502 33.500,292.500 33.611,292.500 48.583 L 292.500 63.667 296.250 63.667 L 300.000 63.667 300.000 59.917 L 300.000 56.167 299.583 56.167 L 299.167 56.167 299.167 47.083 L 299.167 38.000 300.682 38.000 C 302.058 38.000,302.206 37.969,302.285 37.667 C 302.364 37.365,302.512 37.333,303.853 37.333 C 305.222 37.333,305.333 37.358,305.333 37.667 C 305.333 37.986,305.444 38.000,307.917 38.000 L 310.500 38.000 310.500 36.500 C 310.500 35.005,310.501 35.000,310.923 35.000 L 311.346 35.000 311.298 33.542 L 311.250 32.083 309.375 32.036 C 307.637 31.993,307.500 31.965,307.500 31.661 C 307.500 31.345,307.368 31.333,303.750 31.333 C 300.111 31.333,300.000 31.343,300.000 31.667 M323.384 31.659 C 323.313 31.931,323.127 31.993,322.274 32.034 C 321.357 32.078,321.244 32.122,321.197 32.458 C 321.151 32.783,321.044 32.833,320.405 32.833 C 319.787 32.833,319.667 32.886,319.667 33.155 C 319.667 33.362,319.533 33.496,319.292 33.530 C 319.051 33.564,318.898 33.717,318.863 33.958 C 318.829 34.199,318.695 34.333,318.488 34.333 C 318.278 34.333,318.167 34.448,318.167 34.667 C 318.167 34.911,318.056 35.000,317.750 35.000 C 317.417 35.000,317.333 35.083,317.333 35.417 C 317.333 35.722,317.244 35.833,317.000 35.833 C 316.782 35.833,316.667 35.944,316.667 36.155 C 316.667 36.362,316.533 36.496,316.292 36.530 C 316.051 36.564,315.898 36.717,315.863 36.958 C 315.829 37.199,315.695 37.333,315.488 37.333 C 315.218 37.333,315.167 37.453,315.167 38.083 C 315.167 38.772,315.133 38.833,314.750 38.833 C 314.349 38.833,314.333 38.874,314.333 39.897 C 314.333 40.821,314.289 40.973,314.000 41.048 C 313.698 41.127,313.667 41.276,313.667 42.639 C 313.667 44.072,313.649 44.146,313.292 44.197 C 312.919 44.250,312.916 44.271,312.871 47.542 L 312.826 50.833 313.246 50.833 L 313.667 50.833 313.667 52.750 C 313.667 54.540,313.688 54.667,313.992 54.667 C 314.275 54.667,314.324 54.803,314.367 55.708 C 314.412 56.644,314.455 56.755,314.792 56.803 C 315.116 56.849,315.167 56.956,315.167 57.595 C 315.167 58.222,315.217 58.333,315.500 58.333 C 315.744 58.333,315.833 58.444,315.833 58.750 C 315.833 59.083,315.917 59.167,316.250 59.167 C 316.556 59.167,316.667 59.256,316.667 59.500 C 316.667 59.722,316.778 59.833,317.000 59.833 C 317.244 59.833,317.333 59.944,317.333 60.250 C 317.333 60.583,317.417 60.667,317.750 60.667 C 318.056 60.667,318.167 60.756,318.167 61.000 C 318.167 61.213,318.278 61.333,318.473 61.333 C 318.642 61.333,318.865 61.521,318.970 61.750 C 319.116 62.071,319.285 62.167,319.707 62.167 C 320.115 62.167,320.296 62.262,320.419 62.542 C 320.545 62.829,320.745 62.928,321.275 62.967 C 321.794 63.005,321.987 63.098,322.051 63.342 C 322.128 63.638,322.291 63.667,323.889 63.667 C 325.582 63.667,325.645 63.680,325.697 64.042 C 325.796 64.739,333.167 64.695,333.167 63.997 C 333.167 63.688,333.284 63.667,335.016 63.667 C 336.710 63.667,336.872 63.639,336.950 63.341 C 337.021 63.069,337.206 63.007,338.059 62.966 L 339.083 62.917 339.130 60.694 C 339.174 58.581,339.160 58.467,338.838 58.383 C 338.563 58.311,338.500 58.158,338.500 57.558 L 338.500 56.822 336.708 56.869 C 335.032 56.914,334.906 56.941,334.752 57.292 C 334.594 57.652,334.506 57.667,332.472 57.667 C 330.502 57.667,330.348 57.690,330.250 58.000 C 330.190 58.189,329.998 58.333,329.806 58.333 C 329.609 58.333,329.433 58.195,329.382 58.000 C 329.301 57.693,329.154 57.667,327.492 57.667 C 325.750 57.667,325.688 57.654,325.637 57.292 C 325.592 56.980,325.464 56.908,324.875 56.865 C 324.302 56.824,324.167 56.752,324.167 56.490 C 324.167 56.256,324.051 56.167,323.750 56.167 C 323.417 56.167,323.333 56.083,323.333 55.750 C 323.333 55.444,323.244 55.333,323.000 55.333 C 322.748 55.333,322.666 55.221,322.664 54.875 C 322.661 54.334,322.523 54.098,322.125 53.951 C 321.915 53.874,321.833 53.661,321.833 53.191 C 321.833 52.679,321.762 52.520,321.500 52.452 C 321.209 52.376,321.167 52.224,321.167 51.266 L 321.167 50.167 331.070 50.167 C 336.516 50.167,341.091 50.121,341.236 50.066 C 341.690 49.891,341.628 43.333,341.172 43.333 C 340.870 43.333,340.841 43.196,340.797 41.542 C 340.753 39.866,340.726 39.739,340.375 39.585 C 340.044 39.440,340.000 39.300,340.000 38.377 C 340.000 37.375,339.983 37.333,339.583 37.333 C 339.207 37.333,339.167 37.268,339.167 36.651 C 339.167 36.116,339.097 35.951,338.843 35.884 C 338.665 35.837,338.496 35.638,338.468 35.441 C 338.436 35.217,338.276 35.063,338.042 35.030 C 337.801 34.996,337.667 34.862,337.667 34.655 C 337.667 34.448,337.552 34.333,337.345 34.333 C 337.138 34.333,337.004 34.199,336.970 33.958 C 336.936 33.717,336.783 33.564,336.542 33.530 C 336.301 33.496,336.167 33.362,336.167 33.155 C 336.167 32.885,336.047 32.833,335.417 32.833 C 334.728 32.833,334.667 32.799,334.667 32.417 C 334.667 32.015,334.628 32.000,333.583 32.000 C 332.611 32.000,332.500 31.966,332.500 31.667 C 332.500 31.150,323.519 31.143,323.384 31.659 M143.048 33.167 C 142.973 33.456,142.821 33.500,141.897 33.500 C 140.874 33.500,140.833 33.516,140.833 33.917 C 140.833 34.299,140.772 34.333,140.083 34.333 C 139.444 34.333,139.333 34.383,139.333 34.667 C 139.333 34.911,139.222 35.000,138.917 35.000 C 138.583 35.000,138.500 35.083,138.500 35.417 C 138.500 35.799,138.439 35.833,137.750 35.833 C 137.127 35.833,137.000 35.886,137.000 36.147 C 137.000 36.325,136.850 36.500,136.654 36.552 C 136.464 36.601,136.270 36.791,136.222 36.972 C 136.175 37.154,135.993 37.340,135.818 37.386 C 135.570 37.450,135.500 37.620,135.500 38.151 C 135.500 38.768,135.460 38.833,135.083 38.833 C 134.750 38.833,134.667 38.917,134.667 39.250 C 134.667 39.556,134.578 39.667,134.333 39.667 C 134.034 39.667,134.000 39.778,134.000 40.750 C 134.000 41.794,133.985 41.833,133.583 41.833 C 133.179 41.833,133.167 41.867,133.167 43.000 C 133.167 44.056,133.135 44.167,132.833 44.167 C 132.507 44.167,132.500 44.278,132.500 49.417 C 132.500 54.521,132.509 54.667,132.827 54.667 C 133.123 54.667,133.158 54.804,133.202 56.125 C 133.247 57.493,133.273 57.587,133.625 57.637 C 133.949 57.683,134.000 57.789,134.000 58.428 C 134.000 59.056,134.050 59.167,134.333 59.167 C 134.556 59.167,134.667 59.278,134.667 59.500 C 134.667 59.744,134.778 59.833,135.083 59.833 C 135.466 59.833,135.500 59.894,135.500 60.583 C 135.500 61.208,135.553 61.333,135.815 61.333 C 136.013 61.333,136.170 61.489,136.235 61.750 C 136.303 62.019,136.457 62.167,136.670 62.167 C 136.883 62.167,137.000 62.279,137.000 62.482 C 137.000 62.841,137.310 63.000,138.014 63.000 C 138.389 63.000,138.500 63.076,138.500 63.333 C 138.500 63.578,138.611 63.667,138.917 63.667 C 139.214 63.667,139.333 63.757,139.333 63.982 C 139.333 64.338,139.643 64.500,140.328 64.500 C 140.654 64.500,140.821 64.600,140.882 64.833 C 140.960 65.134,141.109 65.167,142.401 65.167 C 143.695 65.167,143.833 65.197,143.833 65.482 C 143.833 65.974,144.082 66.000,148.752 66.000 C 153.248 66.000,153.667 65.942,153.667 65.321 C 153.667 65.236,154.311 65.167,155.099 65.167 C 156.391 65.167,156.540 65.134,156.618 64.833 C 156.690 64.558,156.846 64.500,157.506 64.500 C 158.775 64.500,158.833 64.445,158.833 63.232 C 158.833 62.278,158.799 62.167,158.500 62.167 C 158.187 62.167,158.167 62.056,158.167 60.351 C 158.167 58.238,158.251 58.332,156.361 58.336 C 154.766 58.338,154.333 58.449,154.333 58.853 C 154.333 59.137,154.191 59.167,152.833 59.167 C 151.444 59.167,151.333 59.191,151.333 59.500 C 151.333 59.814,151.222 59.833,149.436 59.833 C 147.679 59.833,147.532 59.809,147.452 59.500 C 147.373 59.200,147.224 59.167,145.944 59.167 C 144.597 59.167,144.520 59.147,144.470 58.792 C 144.437 58.557,144.283 58.398,144.059 58.366 C 143.862 58.338,143.663 58.169,143.616 57.991 C 143.552 57.748,143.385 57.667,142.947 57.667 C 142.392 57.667,142.357 57.632,142.247 56.980 C 142.167 56.506,142.032 56.267,141.815 56.210 C 141.640 56.164,141.500 55.981,141.500 55.798 C 141.500 55.609,141.358 55.432,141.167 55.382 C 140.892 55.310,140.833 55.154,140.833 54.494 C 140.833 53.479,140.711 53.167,140.316 53.167 C 140.053 53.167,140.000 53.041,140.000 52.417 L 140.000 51.667 150.167 51.667 L 160.333 51.667 160.333 47.167 C 160.333 42.778,160.325 42.667,160.000 42.667 C 159.698 42.667,159.667 42.556,159.667 41.500 C 159.667 40.367,159.655 40.333,159.250 40.333 C 158.848 40.333,158.833 40.294,158.833 39.250 C 158.833 38.291,158.796 38.167,158.512 38.167 C 158.305 38.167,158.171 38.033,158.137 37.792 C 158.102 37.551,157.949 37.398,157.708 37.363 C 157.437 37.325,157.333 37.198,157.333 36.905 C 157.333 36.611,157.242 36.500,157.000 36.500 C 156.778 36.500,156.667 36.389,156.667 36.167 C 156.667 35.922,156.556 35.833,156.250 35.833 C 155.917 35.833,155.833 35.750,155.833 35.417 C 155.833 35.120,155.743 35.000,155.519 35.000 C 155.346 35.000,155.167 34.851,155.118 34.667 C 155.049 34.403,154.891 34.333,154.361 34.333 C 153.792 34.333,153.682 34.276,153.637 33.958 C 153.588 33.618,153.480 33.579,152.476 33.534 C 151.540 33.493,151.355 33.435,151.283 33.159 C 151.149 32.645,143.183 32.652,143.048 33.167 M171.000 33.161 C 171.000 33.465,170.863 33.493,169.125 33.536 C 167.324 33.581,167.248 33.598,167.197 33.958 C 167.164 34.189,167.028 34.333,166.843 34.333 C 166.639 34.333,166.508 34.502,166.438 34.854 C 166.300 35.541,166.304 51.278,166.444 59.042 L 166.554 65.167 169.110 65.167 C 171.536 65.167,171.667 65.150,171.667 64.841 C 171.667 64.555,171.803 64.509,172.792 64.466 L 173.917 64.417 173.959 51.625 L 174.002 38.833 177.751 38.833 C 181.389 38.833,181.500 38.843,181.500 39.167 C 181.500 39.451,181.611 39.500,182.250 39.500 C 182.939 39.500,183.000 39.534,183.000 39.917 C 183.000 40.250,183.083 40.333,183.417 40.333 C 183.793 40.333,183.833 40.399,183.833 41.016 C 183.833 41.558,183.902 41.716,184.167 41.785 C 184.436 41.855,184.500 42.012,184.500 42.603 C 184.500 43.270,184.536 43.333,184.915 43.333 L 185.331 43.333 185.374 53.875 L 185.417 64.417 189.125 64.462 L 192.833 64.506 192.833 53.587 L 192.833 42.667 192.417 42.667 C 192.003 42.667,192.000 42.657,192.000 41.151 C 192.000 39.776,191.969 39.627,191.667 39.548 C 191.392 39.476,191.333 39.321,191.333 38.661 C 191.333 37.646,191.211 37.333,190.816 37.333 C 190.590 37.333,190.500 37.214,190.500 36.917 C 190.500 36.611,190.411 36.500,190.167 36.500 C 189.944 36.500,189.833 36.389,189.833 36.167 C 189.833 35.922,189.722 35.833,189.417 35.833 C 189.083 35.833,189.000 35.750,189.000 35.417 C 189.000 35.111,188.911 35.000,188.667 35.000 C 188.444 35.000,188.333 34.889,188.333 34.667 C 188.333 34.383,188.222 34.333,187.595 34.333 C 186.956 34.333,186.849 34.283,186.803 33.958 C 186.759 33.648,186.630 33.575,186.059 33.533 C 185.539 33.495,185.347 33.402,185.283 33.158 C 185.149 32.646,171.000 32.649,171.000 33.161 M223.000 48.566 C 223.000 62.757,223.026 64.308,223.264 64.399 C 223.409 64.454,225.096 64.500,227.014 64.500 L 230.500 64.500 230.500 48.667 L 230.500 32.833 226.750 32.833 L 223.000 32.833 223.000 48.566 M361.167 36.917 C 361.167 37.299,361.228 37.333,361.917 37.333 C 362.556 37.333,362.667 37.383,362.667 37.667 C 362.667 37.951,362.778 38.000,363.417 38.000 L 364.167 38.000 364.167 38.682 C 364.167 39.214,364.237 39.383,364.486 39.448 C 364.661 39.494,364.850 39.712,364.906 39.932 C 364.970 40.187,365.127 40.333,365.337 40.333 C 365.632 40.333,365.667 40.448,365.667 41.417 C 365.667 42.389,365.701 42.500,366.000 42.500 C 366.244 42.500,366.333 42.611,366.333 42.917 L 366.333 43.333 362.583 43.333 L 358.833 43.333 358.833 43.750 L 358.833 44.167 356.208 44.167 L 353.583 44.167 353.638 43.016 C 353.684 42.047,353.743 41.852,354.013 41.782 C 354.263 41.716,354.333 41.548,354.333 41.016 C 354.333 40.447,354.388 40.333,354.663 40.333 C 354.873 40.333,355.030 40.187,355.094 39.932 C 355.150 39.712,355.339 39.494,355.514 39.448 C 355.690 39.402,355.833 39.250,355.833 39.110 C 355.833 38.970,355.983 38.808,356.167 38.750 C 356.350 38.692,356.500 38.499,356.500 38.322 C 356.500 38.090,356.616 38.000,356.917 38.000 C 357.222 38.000,357.333 37.911,357.333 37.667 C 357.333 37.383,357.444 37.333,358.083 37.333 C 358.772 37.333,358.833 37.299,358.833 36.917 C 358.833 36.512,358.867 36.500,360.000 36.500 C 361.133 36.500,361.167 36.512,361.167 36.917 M329.500 37.667 C 329.500 37.951,329.611 38.000,330.250 38.000 C 330.939 38.000,331.000 38.034,331.000 38.417 C 331.000 38.722,331.089 38.833,331.333 38.833 C 331.556 38.833,331.667 38.944,331.667 39.167 C 331.667 39.411,331.778 39.500,332.083 39.500 C 332.466 39.500,332.500 39.561,332.500 40.250 C 332.500 40.889,332.549 41.000,332.833 41.000 C 333.123 41.000,333.167 41.111,333.167 41.844 C 333.167 42.781,333.385 43.333,333.756 43.333 C 333.905 43.333,334.000 43.495,334.000 43.750 L 334.000 44.167 327.583 44.167 L 321.167 44.167 321.167 43.000 C 321.167 41.944,321.198 41.833,321.500 41.833 C 321.784 41.833,321.833 41.722,321.833 41.083 C 321.833 40.394,321.867 40.333,322.250 40.333 C 322.583 40.333,322.667 40.250,322.667 39.917 C 322.667 39.611,322.756 39.500,323.000 39.500 C 323.222 39.500,323.333 39.389,323.333 39.167 C 323.333 38.922,323.444 38.833,323.750 38.833 C 324.083 38.833,324.167 38.750,324.167 38.417 C 324.167 38.034,324.228 38.000,324.917 38.000 C 325.556 38.000,325.667 37.951,325.667 37.667 C 325.667 37.353,325.778 37.333,327.583 37.333 C 329.389 37.333,329.500 37.353,329.500 37.667 M148.333 39.167 C 148.333 39.451,148.444 39.500,149.083 39.500 C 149.772 39.500,149.833 39.534,149.833 39.917 C 149.833 40.217,149.923 40.333,150.155 40.333 C 150.333 40.333,150.525 40.483,150.583 40.667 C 150.642 40.850,150.834 41.000,151.011 41.000 C 151.244 41.000,151.333 41.116,151.333 41.417 C 151.333 41.722,151.422 41.833,151.667 41.833 C 151.901 41.833,152.001 41.945,152.002 42.208 C 152.007 42.913,152.200 43.333,152.519 43.333 C 152.797 43.333,152.833 43.469,152.833 44.500 L 152.833 45.667 146.417 45.667 L 140.000 45.667 140.000 45.262 C 140.000 44.968,140.104 44.842,140.375 44.803 C 140.686 44.759,140.759 44.630,140.801 44.050 C 140.839 43.530,140.935 43.324,141.176 43.247 C 141.423 43.169,141.500 42.992,141.500 42.500 C 141.500 41.960,141.560 41.848,141.875 41.803 C 142.116 41.769,142.269 41.616,142.303 41.375 C 142.337 41.134,142.471 41.000,142.678 41.000 C 142.885 41.000,143.000 40.885,143.000 40.678 C 143.000 40.471,143.134 40.337,143.375 40.303 C 143.616 40.269,143.769 40.116,143.803 39.875 C 143.849 39.551,143.956 39.500,144.595 39.500 C 145.222 39.500,145.333 39.450,145.333 39.167 C 145.333 38.858,145.444 38.833,146.833 38.833 C 148.222 38.833,148.333 38.858,148.333 39.167 M115.863 39.875 C 115.912 40.216,116.019 40.255,117.042 40.299 C 118.030 40.343,118.167 40.388,118.167 40.674 C 118.167 40.885,118.280 41.000,118.488 41.000 C 118.695 41.000,118.829 41.134,118.863 41.375 C 118.898 41.616,119.051 41.769,119.292 41.803 L 119.667 41.857 119.667 50.512 L 119.667 59.167 119.250 59.167 C 118.944 59.167,118.833 59.256,118.833 59.500 C 118.833 59.822,118.722 59.833,115.417 59.833 C 112.111 59.833,112.000 59.822,112.000 59.500 C 112.000 59.216,111.889 59.167,111.250 59.167 C 110.626 59.167,110.500 59.114,110.500 58.852 C 110.500 58.607,110.334 58.513,109.750 58.425 C 109.158 58.337,109.000 58.245,109.000 57.990 C 109.000 57.782,108.885 57.667,108.678 57.667 C 108.471 57.667,108.337 57.533,108.303 57.292 C 108.269 57.051,108.116 56.898,107.875 56.863 C 107.559 56.818,107.500 56.708,107.500 56.155 C 107.500 55.617,107.442 55.500,107.176 55.500 C 106.907 55.500,106.843 55.364,106.801 54.708 C 106.757 54.033,106.695 53.909,106.375 53.863 C 106.012 53.812,106.000 53.751,106.000 51.988 C 106.000 50.278,105.980 50.167,105.667 50.167 C 105.422 50.167,105.333 50.056,105.333 49.750 C 105.333 49.444,105.422 49.333,105.667 49.333 C 105.983 49.333,106.000 49.222,106.000 47.095 C 106.000 44.901,106.007 44.855,106.375 44.803 C 106.687 44.759,106.759 44.631,106.801 44.042 C 106.843 43.469,106.915 43.333,107.176 43.333 C 107.449 43.333,107.500 43.215,107.500 42.583 C 107.500 41.894,107.534 41.833,107.917 41.833 C 108.250 41.833,108.333 41.750,108.333 41.417 C 108.333 41.111,108.422 41.000,108.667 41.000 C 108.889 41.000,109.000 40.889,109.000 40.667 C 109.000 40.383,109.111 40.333,109.750 40.333 C 110.439 40.333,110.500 40.299,110.500 39.917 L 110.500 39.500 113.155 39.500 C 115.782 39.500,115.811 39.504,115.863 39.875 " stroke="none" fill="#fcfcfc" fill-rule="evenodd"></path><path id="path1" d="M38.833 25.667 L 38.833 29.833 37.333 29.833 L 35.833 29.833 35.833 32.083 L 35.833 34.333 35.085 34.333 L 34.337 34.333 34.294 28.292 L 34.250 22.250 27.542 22.206 L 20.833 22.163 20.833 34.228 C 20.833 44.749,20.865 46.319,21.083 46.500 C 21.221 46.614,21.333 46.782,21.333 46.873 C 21.333 47.020,22.129 47.825,22.922 48.481 C 23.075 48.608,23.530 48.749,23.934 48.794 C 24.409 48.848,24.667 48.958,24.667 49.109 C 24.667 49.236,24.848 49.423,25.069 49.524 C 25.291 49.625,25.507 49.843,25.551 50.009 C 25.602 50.205,25.856 50.352,26.273 50.427 C 26.627 50.491,26.995 50.605,27.090 50.680 C 27.866 51.290,30.498 51.880,32.603 51.916 C 33.806 51.937,34.856 51.994,34.937 52.043 C 35.301 52.266,39.526 51.820,40.132 51.495 C 40.469 51.315,40.920 51.167,41.133 51.167 C 41.494 51.167,41.980 50.969,44.333 49.862 C 44.837 49.625,45.494 49.170,45.792 48.850 L 46.333 48.268 46.333 41.301 L 46.333 34.333 45.250 34.333 L 44.167 34.333 44.167 32.083 L 44.167 29.833 42.667 29.833 L 41.167 29.833 41.167 27.587 L 41.167 25.340 40.750 25.235 C 40.337 25.132,40.333 25.113,40.333 23.315 L 40.333 21.500 39.583 21.500 L 38.833 21.500 38.833 25.667 M25.333 29.083 C 25.333 29.772,25.299 29.833,24.917 29.833 C 24.534 29.833,24.500 29.772,24.500 29.083 C 24.500 28.394,24.534 28.333,24.917 28.333 C 25.299 28.333,25.333 28.394,25.333 29.083 M30.500 29.083 L 30.500 29.833 29.750 29.833 L 29.000 29.833 29.000 29.083 L 29.000 28.333 29.750 28.333 L 30.500 28.333 30.500 29.083 M28.333 33.917 C 28.333 34.299,28.272 34.333,27.583 34.333 C 26.894 34.333,26.833 34.299,26.833 33.917 C 26.833 33.534,26.894 33.500,27.583 33.500 C 28.272 33.500,28.333 33.534,28.333 33.917 M25.333 38.417 C 25.333 38.750,25.250 38.833,24.917 38.833 C 24.583 38.833,24.500 38.750,24.500 38.417 C 24.500 38.083,24.583 38.000,24.917 38.000 C 25.250 38.000,25.333 38.083,25.333 38.417 M30.500 38.417 C 30.500 38.799,30.439 38.833,29.750 38.833 C 29.061 38.833,29.000 38.799,29.000 38.417 C 29.000 38.034,29.061 38.000,29.750 38.000 C 30.439 38.000,30.500 38.034,30.500 38.417 M38.833 38.750 L 38.833 39.500 38.083 39.500 L 37.333 39.500 37.333 38.750 L 37.333 38.000 38.083 38.000 L 38.833 38.000 38.833 38.750 M42.667 38.750 L 42.667 39.500 41.917 39.500 L 41.167 39.500 41.167 38.750 L 41.167 38.000 41.917 38.000 L 42.667 38.000 42.667 38.750 M38.833 43.333 L 38.833 44.167 38.083 44.167 L 37.333 44.167 37.333 43.333 L 37.333 42.500 38.083 42.500 L 38.833 42.500 38.833 43.333 M42.667 43.333 L 42.667 44.167 41.917 44.167 L 41.167 44.167 41.167 43.333 L 41.167 42.500 41.917 42.500 L 42.667 42.500 42.667 43.333 M28.333 43.750 C 28.333 44.133,28.272 44.167,27.583 44.167 C 26.894 44.167,26.833 44.133,26.833 43.750 C 26.833 43.367,26.894 43.333,27.583 43.333 C 28.272 43.333,28.333 43.367,28.333 43.750 M25.333 48.250 C 25.333 48.583,25.250 48.667,24.917 48.667 C 24.583 48.667,24.500 48.583,24.500 48.250 C 24.500 47.917,24.583 47.833,24.917 47.833 C 25.250 47.833,25.333 47.917,25.333 48.250 M30.500 48.250 C 30.500 48.633,30.439 48.667,29.750 48.667 C 29.061 48.667,29.000 48.633,29.000 48.250 C 29.000 47.867,29.061 47.833,29.750 47.833 C 30.439 47.833,30.500 47.867,30.500 48.250 M38.833 48.250 C 38.833 48.633,38.772 48.667,38.083 48.667 C 37.394 48.667,37.333 48.633,37.333 48.250 C 37.333 47.867,37.394 47.833,38.083 47.833 C 38.772 47.833,38.833 47.867,38.833 48.250 M42.667 48.250 C 42.667 48.633,42.606 48.667,41.917 48.667 C 41.228 48.667,41.167 48.633,41.167 48.250 C 41.167 47.867,41.228 47.833,41.917 47.833 C 42.606 47.833,42.667 47.867,42.667 48.250 " stroke="none" fill="#041cfc" fill-rule="evenodd"></path><path id="path2" d="M20.833 46.538 C 20.833 47.292,22.286 48.762,23.662 49.399 C 24.139 49.620,24.638 49.956,24.771 50.146 C 24.903 50.335,25.309 50.579,25.673 50.688 C 26.036 50.797,26.333 50.942,26.333 51.010 C 26.333 51.078,26.722 51.227,27.198 51.341 C 27.674 51.455,28.327 51.704,28.650 51.895 C 29.596 52.453,39.705 52.437,40.844 51.875 C 41.263 51.669,41.716 51.500,41.851 51.500 C 41.986 51.500,42.358 51.366,42.678 51.203 C 42.998 51.040,43.614 50.771,44.047 50.606 C 44.479 50.441,44.833 50.255,44.833 50.194 C 44.833 50.132,45.060 49.981,45.337 49.858 C 45.614 49.736,45.952 49.421,46.087 49.159 C 46.496 48.369,46.366 48.233,45.792 48.850 C 45.494 49.170,44.837 49.625,44.333 49.862 C 41.980 50.969,41.494 51.167,41.133 51.167 C 40.920 51.167,40.469 51.315,40.132 51.495 C 39.526 51.820,35.301 52.266,34.937 52.043 C 34.856 51.994,33.806 51.937,32.603 51.916 C 30.498 51.880,27.866 51.290,27.090 50.680 C 26.995 50.605,26.627 50.491,26.273 50.427 C 25.856 50.352,25.602 50.205,25.551 50.009 C 25.507 49.843,25.291 49.625,25.069 49.524 C 24.848 49.423,24.667 49.236,24.667 49.109 C 24.667 48.958,24.409 48.848,23.934 48.794 C 23.530 48.749,23.075 48.608,22.922 48.481 C 22.129 47.825,21.333 47.020,21.333 46.873 C 21.333 46.782,21.221 46.614,21.083 46.500 C 20.880 46.332,20.833 46.339,20.833 46.538 " stroke="none" fill="#94a4fc" fill-rule="evenodd"></path><path id="path3" d="" stroke="none" fill="#100d4fc" fill-rule="evenodd"></path><path id="path4" d="" stroke="none" fill="#100d4fc" fill-rule="evenodd"></path></g></svg>